<svg xmlns="http://www.w3.org/2000/svg" width="256" height="256"><path fill="#1976D2" fill-opacity=".016" fill-rule="evenodd" d="M0 128.004v128.004l128.25-.254 128.25-.254.254-127.75L257.008 0H0v128.004m.485.496c0 70.4.119 99.053.265 63.672.146-35.38.146-92.98 0-128C.604 29.153.485 58.1.485 128.5"/><path fill="#1976D2" fill-opacity=".107" fill-rule="evenodd" d="M67 1.522C35.054 8.077 14.852 27.682 8.303 58.483 6.152 68.602 7.013 89.112 9.983 98.5c5.161 16.315 13.075 27.085 26.431 35.971 17.499 11.644 34.326 17.798 79.187 28.963 16.449 4.093 34.855 9.061 40.903 11.04 15.505 5.073 32.994 13.673 37.554 18.466 6.789 7.138 8.722 18.227 4.939 28.338-3.563 9.524-10.224 13.687-25.412 15.882l-8.915 1.288-6.835 8.026c-3.759 4.414-6.835 8.364-6.835 8.776 0 1.33 28.212.789 37.5-.72 17.954-2.916 29.561-8.497 40.526-19.487 9.01-9.029 14.778-19.751 18.045-33.543 1.805-7.616 2.06-11.076 1.658-22.5-.685-19.468-4.344-30.768-14.164-43.744-14.518-19.184-46.203-34.499-95.952-46.377-44.04-10.514-57.355-14.86-71.017-23.176-5.571-3.392-7.496-5.259-9.972-9.675-2.619-4.672-3.067-6.502-3.058-12.5.009-5.872.492-7.909 2.937-12.38 3.424-6.262 8.068-9.306 21.704-14.222 8.327-3.003 9.079-3.523 13.8-9.53C95.753 3.902 98 .808 98 .521 98-.557 73.235.242 67 1.522m87.421-.103c-3.954 1.722-16.68 14.25-18.976 18.681-6.113 11.796-1.844 24.146 10.492 30.351 3.674 1.848 26.857 9.673 40.288 13.599 2.606.761 3.504-.151 20.554-20.877C230.133 14.783 241 1.251 241 .561c0-.309-18.787-.543-41.75-.522-32.642.031-42.422.332-44.829 1.38M38.652 220.463C23.444 239.417 11 255.167 11 255.463c0 .295 18.185.537 40.412.537h40.412l9.571-10.147C112.571 234.007 116 227.999 116 220.264c0-9.427-5.248-16.347-16.793-22.144C92.869 194.937 69.533 186 67.562 186c-.691 0-13.701 15.508-28.91 34.463"/><path fill="#1976D2" fill-opacity=".335" fill-rule="evenodd" d="M69.342 1.479C51.76 4.67 38.768 11.182 27.389 22.507 18.328 31.525 13.842 39.446 9.837 53.5 6.873 63.903 6.603 84.9 9.304 95c4.608 17.232 14.985 31.675 29.062 40.449 17.659 11.006 34.073 16.909 75.486 27.146 35.246 8.713 50.439 13.479 64.739 20.31C195.499 190.982 201 197.879 201 211c0 7.331-2.293 13.892-6.295 18.011-5.007 5.154-9.796 6.846-26.756 9.458-2.961.456-4.685 1.919-10.361 8.789l-6.81 8.242 9.861.316c19.126.614 38.752-2.631 51.022-8.435 26.206-12.398 41.233-44.326 36.404-77.349-2.541-17.377-7.441-28.015-18.202-39.519-17.32-18.516-45.16-30.468-102.363-43.946-13.2-3.111-28.565-7.182-34.144-9.048-11.522-3.853-26.485-11.074-31.239-15.074-9.626-8.1-10.769-25.575-2.327-35.607 2.647-3.147 12.402-8.142 22.137-11.336 5.717-1.876 7.514-3.393 12.885-10.883L98.124 0 87.312.09c-5.947.05-14.033.675-17.97 1.389m86.871-.351c-4.847 1.398-17.631 13.983-20.815 20.49-2.157 4.41-2.561 6.404-2.194 10.833.929 11.202 7.837 16.954 27.796 23.143 6.325 1.962 14.726 4.655 18.668 5.986 3.942 1.331 7.767 2.399 8.5 2.373.733-.026 5.607-5.277 10.832-11.67 26.086-31.914 38.344-47.037 40.148-49.533L241.136 0l-40.818.09c-22.45.05-42.297.517-44.105 1.038M40 219.187c-14.575 18.208-27.098 33.954-27.83 34.992-1.297 1.841-.352 1.88 39 1.604l40.33-.283 9-9.269c14.352-14.782 18.075-23.996 13.629-33.731-3.89-8.517-11.607-13.486-33.969-21.872-6.787-2.545-12.637-4.61-13-4.587-.363.023-12.585 14.938-27.16 33.146"/><path fill="#1976D2" fill-opacity=".336" fill-rule="evenodd" d="M74.269 1.064C59.013 3.049 42.61 9.719 31.93 18.281 16.306 30.808 7.681 51.411 7.767 76c.084 23.827 9.087 43.467 25.521 55.675 7.943 5.9 27.227 15.252 40.712 19.743 5.775 1.923 24.979 7.12 42.677 11.548 17.697 4.427 36.822 9.659 42.5 11.626 12.567 4.354 29.367 12.312 33.718 15.973 8.607 7.242 11.29 22.527 5.815 33.123-4.495 8.699-10.731 12.182-25.738 14.376l-8.129 1.189-6.49 7.607-6.491 7.607 3.201.829c4.838 1.254 33.235-.931 42.437-3.265 19.889-5.045 34.506-16.677 42.764-34.031 2.486-5.225 5.049-11.734 5.696-14.463 5.182-21.866 1.939-47.099-8.034-62.53-15.852-24.526-45.135-38.747-112.415-54.591-27.067-6.375-40.135-10.603-52.578-17.015C58.725 62.08 53.75 55.362 53.75 43.5c0-14.345 6.175-20.4 29.507-28.931 3.67-1.342 5.785-3.075 9.25-7.579C94.978 3.779 97 .893 97 .576c0-.811-15.266-.483-22.731.488M159.38.925c-5.283.865-8.468 2.973-15.917 10.531-11.871 12.046-13.488 22.976-4.821 32.57 4.556 5.042 10.149 7.58 30.358 13.773 9.075 2.782 17.227 5.339 18.116 5.685 1.21.469 6.118-4.844 19.563-21.179C229.411 14.686 240 1.444 240 .636c0-.846-75.341-.575-80.62.289M39.577 220.321 12.148 254.5l39.639.262 39.639.261 6.857-6.761c14.53-14.329 19.129-23.251 16.696-32.392-2.926-10.993-10.485-16.078-39.727-26.725l-8.247-3.004-27.428 34.18"/></svg>