<svg xmlns="http://www.w3.org/2000/svg" width="256" height="256"><path fill="#fff" fill-opacity=".016" fill-rule="evenodd" d="M0 128.004v128.004l128.25-.254 128.25-.254.254-127.75L257.008 0H0v128.004m.485.496c0 70.4.119 99.053.265 63.672.146-35.38.146-92.98 0-128C.604 29.153.485 58.1.485 128.5"/><path fill="#fff" fill-opacity=".111" fill-rule="evenodd" d="M70.5 11.479c-34.447 7.58-54.54 32.448-54.483 67.431.03 17.806 3.925 30.329 13.247 42.59 5.608 7.376 11.655 12.042 23.851 18.407 14.628 7.635 26.934 11.731 60.485 20.135 35.836 8.975 45.848 12.136 60.4 19.068 16.176 7.706 20.423 12.975 20.464 25.39.019 5.803-.451 7.855-2.745 12-4.335 7.832-9.141 10.15-26.898 12.978-3.612.575-4.852 1.747-15.767 14.894-1.511 1.821-1.06 1.859 16.446 1.367 28.46-.799 41.015-5.088 54.594-18.653 13.205-13.19 18.861-28.044 18.882-49.586.012-13.194-2.497-24.928-7.246-33.891-4.12-7.776-15.084-19.361-23.816-25.166-15.483-10.293-41.243-19.621-78.414-28.396-34.503-8.145-55.505-15.986-63.732-23.794-4.2-3.986-6.065-9.992-5.609-18.061.676-11.97 4.486-15.806 22.476-22.634 7.01-2.66 8.676-3.776 12.054-8.072 2.156-2.742 4.259-5.548 4.674-6.236 1.045-1.73-20.744-1.557-28.863.229m80.766.161c-4.736 2.335-16.816 15.465-18.263 19.852-1.769 5.358-.85 13.51 1.969 17.469 3.811 5.351 10.391 8.693 28.444 14.444 9.396 2.993 17.861 5.589 18.811 5.769 1.19.224 5.202-3.876 12.893-13.174 9.056-10.949 32.037-39.386 36.163-44.75.766-.995-6.964-1.245-37.911-1.227-33.527.019-39.317.242-42.106 1.617M54.732 201.25a12495.466 12495.466 0 0 0-25.959 32.25l-9.607 12 37.383.262 37.383.262 8.284-8.583c12.698-13.156 16.179-20.546 13.815-29.326-1.301-4.832-6.64-10.713-13.14-14.473C99.242 191.531 73.066 181 71.467 181c-.21 0-7.741 9.113-16.735 20.25"/><path fill="#fff" fill-opacity=".381" fill-rule="evenodd" d="M72.5 11.477c-21.204 3.929-39.332 16.159-47.78 32.235C18.495 55.559 16.502 64.434 16.572 80c.053 11.843.387 14.482 2.719 21.5 6.25 18.812 15.51 28.81 36.116 38.993 16.679 8.243 24.324 10.727 62.712 20.375 38.374 9.646 57.861 16.697 68.739 24.874 7.754 5.829 10.461 19.779 5.774 29.758-1.292 2.75-3.216 5.77-4.277 6.712-3.425 3.04-11.014 5.789-19.17 6.942l-7.963 1.126-6.111 7.323c-3.361 4.027-6.111 7.564-6.111 7.86 0 .924 21.16.586 29.602-.472 31.071-3.896 48.898-18.145 57.542-45.991 1.951-6.285 2.329-9.687 2.332-21 .005-15.382-1.427-22.292-6.94-33.5C219.23 119.481 191.552 105.069 126 89.549c-12.375-2.93-26.1-6.522-30.5-7.981-11.445-3.795-26.11-11.265-30.02-15.291C55.091 55.58 57.95 36.757 71 29.933c1.375-.719 6.325-2.746 11-4.504 7.817-2.94 8.889-3.689 13.343-9.313L100.186 10l-10.343.09c-5.689.05-13.493.674-17.343 1.387m80.702-.346c-4.389 1.266-16.627 13.381-19.163 18.972-4.371 9.634-1.312 19.042 8.026 24.678 2.989 1.804 9.935 4.65 15.435 6.323 5.5 1.674 13.226 4.135 17.168 5.47 3.942 1.334 7.627 2.426 8.188 2.426.93 0 20.364-23.11 40.995-48.75L232.098 10l-37.799.09c-20.789.05-39.283.518-41.097 1.041M68.399 184.856C58.555 196.707 20 244.966 20 245.436c0 .31 16.538.572 36.75.582l36.75.018 9.253-9.709C113.393 225.163 116 220.599 116 213.135c0-11.428-7.487-18.026-30-26.438a3218.903 3218.903 0 0 1-12.037-4.517c-2.238-.854-2.894-.539-5.564 2.676"/><path fill="#fff" fill-opacity=".254" fill-rule="evenodd" d="M77.061 11.087c-24.18 3.129-44.285 16.445-53.041 35.129-5.514 11.767-7.339 20.049-7.335 33.284.007 22.781 8.724 41.415 24.587 52.555 16.024 11.253 32.999 17.564 75.474 28.058 40.362 9.972 61.702 17.877 71.042 26.314 10.045 9.075 10.186 26.943.284 35.889-4.413 3.986-8.303 5.444-18.903 7.083l-7.641 1.182-5.812 6.92c-5.657 6.735-5.75 6.943-3.514 7.784 3.683 1.386 32.234-.947 40.782-3.333 11.663-3.255 20.018-8.168 27.747-16.316 12.094-12.75 17.651-27.979 17.564-48.136-.059-13.661-2.15-23.308-7.237-33.386-3.694-7.316-14.311-18.853-22.417-24.358-14.852-10.086-41.526-20.063-74.141-27.733-35.889-8.44-49.229-12.824-62.263-20.464-9.932-5.82-13.821-12.814-13.05-23.468.837-11.573 6.288-17.133 22.55-22.996 8.071-2.91 9.404-3.756 12.403-7.861 5.641-7.723 5.83-7.248-2.84-7.107-4.29.07-10.698.502-14.239.96m80.439-.432c-1.1.233-3.084.657-4.408.943-3.109.671-15.761 12.856-18.07 17.402-4.047 7.967-3.342 15.288 2.064 21.445 4.062 4.626 8.991 6.838 29.193 13.098 13.149 4.074 17.477 5.055 18.305 4.147 4.284-4.704 44.49-54.261 45.789-56.44.591-.991-6.662-1.226-35.064-1.134-19.695.064-36.709.306-37.809.539M46.921 212.208c-13.331 16.661-24.672 30.855-25.202 31.542-.767.995 6.552 1.231 35.909 1.155l36.872-.096 8.933-9.654c9.635-10.413 12.512-15.39 12.519-21.655.009-8.507-5.023-14.994-15.851-20.437-4.935-2.48-20.723-8.668-26.771-10.492-1.9-.574-5.189 3.117-26.409 29.637"/></svg>