<svg xmlns="http://www.w3.org/2000/svg" style="background:rgb(0, 0, 0)" viewBox="0 0 4096 4096" xmlns:v="https://vecta.io/nano"><path d="M1413.038 120.458c-454.811-7.64-950.399 226.392-1104.429 679.775-180.375 461.491-73.928 1073.858 363.754 1346.382 691.184 445.733 1572.372 397.669 2280.906 801.935 192.611 94.983 252.885 352.41 155.095 543.544-86.051 194.256-328.448 199.995-506.954 224.752-72.348 84.035-144.157 170.231-212.327 256.767 392.429 7.883 833.195 8.115 1141.951-274.114 357.402-322.925 419.984-891.992 249.103-1328.065-218.581-484.592-758.44-676.619-1233.568-817.735-476.604-153.006-1001.08-185.165-1434.739-452.259-253.407-134.554-241.501-573.5 42.795-666.607 97.527-52.664 48.357-22.02 296.27-118.508 34.943-47.768 119.58-159.746 149.823-195.867zm1232.812 0c-92.613 3.121-168.833-6.608-260.381 63.79-125.912 119.136-299.505 252.145-259.278 455.528 45.163 249.375 344.911 289.718 544.589 357.665 99.336 25.751 196.166 69.044 294.383 92.478l790.053-969.461zM1129.935 2918.564l-849.307 1055.05 1226.228-4.938c117.563-166.961 347.777-288.232 360.462-518.472 7.526-263.676-283.724-361.6-485.319-439.535l-252.064-92.105z" fill="#4361ee"/></svg>