<svg xmlns="http://www.w3.org/2000/svg" style="background:rgb(0, 0, 0)" viewBox="0 0 4096 4096" xmlns:v="https://vecta.io/nano"><path d="M1578.501 622.752c-336.293-5.649-702.737 167.397-816.628 502.634-133.372 341.232-54.663 794.024 268.964 995.532 511.07 329.58 1162.631 294.041 1686.53 592.961 142.419 70.231 186.986 260.576 114.679 401.903-63.627 143.635-242.858 147.879-374.848 166.184-53.495 62.136-106.591 125.871-156.997 189.857 290.167 5.829 616.074 6 844.373-202.683 264.267-238.774 310.541-659.55 184.19-981.987-161.622-358.313-560.8-500.301-912.115-604.644-352.407-113.135-740.211-136.913-1060.864-334.406-187.372-99.49-178.569-424.053 31.643-492.898 72.112-38.941 35.756-16.282 219.066-87.626 25.838-35.32 88.419-118.118 110.781-144.827zm911.557 0c-68.479 2.308-124.838-4.886-192.529 47.167-93.101 88.091-221.458 186.439-191.713 336.823 33.394 184.391 255.031 214.221 402.676 264.462 73.45 19.04 145.048 51.052 217.671 68.38l584.175-716.832zM1369.172 2691.706l-627.988 780.117 906.688-3.651c86.928-123.453 257.15-213.122 266.53-383.365 5.565-194.965-209.789-267.372-358.851-324.997l-186.379-68.104z" fill="#4361ee"/></svg>